<?xml version="1.0" encoding="UTF-8"?>
<svg version="1.1" xmlns="http://www.w3.org/2000/svg" width="256" height="256">
<path d="M0 0 C1.06586526 -0.01041829 1.06586526 -0.01041829 2.15326315 -0.02104706 C4.52864948 -0.03930886 6.90303613 -0.02905574 9.27845764 -0.01878357 C10.98373155 -0.02584251 12.6889992 -0.03458743 14.39425659 -0.04489136 C19.02241757 -0.06739835 23.65023678 -0.06444254 28.27843165 -0.05556989 C32.14282604 -0.05046062 36.00715617 -0.05775209 39.87154394 -0.06504196 C48.98835874 -0.08204524 58.10500617 -0.07847093 67.22181702 -0.06175232 C76.62582995 -0.04482998 86.02937873 -0.06066608 95.43334097 -0.0929752 C103.50908751 -0.1196694 111.58468956 -0.12694758 119.66047579 -0.11846012 C124.48300353 -0.11353046 129.30525198 -0.1157486 134.12774467 -0.13624763 C138.66285062 -0.1546021 143.19728888 -0.14864913 147.73235893 -0.12404823 C149.39561123 -0.11903958 151.05891438 -0.1225316 152.72212601 -0.13519669 C154.99544882 -0.15113664 157.26657537 -0.13617146 159.53979492 -0.11352539 C160.8109059 -0.11293908 162.08201689 -0.11235277 163.39164639 -0.1117487 C168.02729889 0.73196051 169.57288914 2.12701508 172.83338928 5.5146637 C175.56673379 9.97561849 175.11541388 14.95820402 175.09408569 20.03503418 C175.09791124 20.99879127 175.10173679 21.96254835 175.10567826 22.9555102 C175.11600355 26.18744159 175.11201697 29.41919517 175.10804749 32.65113831 C175.1123942 34.96723597 175.11757721 37.28333219 175.12353516 39.59942627 C175.13694033 45.89273695 175.13750216 52.18598762 175.13497186 58.4793098 C175.13390324 63.73049866 175.13878269 68.98167533 175.14357728 74.23286158 C175.1553125 87.32783654 175.15444436 100.42277727 175.14802047 113.51775444 C175.14285092 124.88803742 175.15410782 136.25823473 175.17311869 147.62850075 C175.19249384 159.30624552 175.2004622 170.98394609 175.19699544 182.66170698 C175.19518049 189.21679236 175.19783996 195.77179926 175.21170998 202.32687187 C175.22426288 208.49022069 175.22236816 214.65339774 175.20929909 220.81674385 C175.20692828 223.07987144 175.20968596 225.34301103 175.21792221 227.60612488 C175.22834842 230.69338707 175.22032188 233.7800685 175.20761108 236.86730957 C175.21498537 237.76468572 175.22235965 238.66206187 175.2299574 239.58663124 C175.17475218 245.95202092 174.13182212 250.11027133 169.59380245 254.85749722 C166.07292077 256.97119787 163.76381438 257.02027746 159.66677856 257.02932739 C158.95620172 257.03627292 158.24562488 257.04321845 157.51351541 257.05037445 C155.13812908 257.06863626 152.76374243 257.05838313 150.38832092 257.04811096 C148.68304701 257.0551699 146.97777937 257.06391482 145.27252197 257.07421875 C140.644361 257.09672575 136.01654178 257.09376993 131.38834691 257.08489728 C127.52395252 257.07978801 123.65962239 257.08707948 119.79523462 257.09436935 C110.67841983 257.11137263 101.56177239 257.10779832 92.44496155 257.09107971 C83.04094862 257.07415737 73.63739983 257.08999347 64.2334376 257.12230259 C56.15769105 257.14899679 48.08208901 257.15627497 40.00630277 257.14778751 C35.18377504 257.14285785 30.36152659 257.14507599 25.53903389 257.16557503 C21.00392794 257.1839295 16.46948969 257.17797652 11.93441963 257.15337563 C10.27116733 257.14836697 8.60786418 257.15185899 6.94465256 257.16452408 C4.67132974 257.18046403 2.4002032 257.16549885 0.12698364 257.14285278 C-1.14412734 257.14226647 -2.41523832 257.14168016 -3.72486782 257.14107609 C-8.36052033 256.29736688 -9.90611058 254.90231231 -13.16661072 251.5146637 C-15.89995523 247.0537089 -15.44863532 242.07112337 -15.42730713 236.99429321 C-15.43113268 236.03053613 -15.43495822 235.06677904 -15.4388997 234.07381719 C-15.44922498 230.8418858 -15.44523841 227.61013222 -15.44126892 224.37818909 C-15.44561563 222.06209142 -15.45079865 219.7459952 -15.45675659 217.42990112 C-15.47016177 211.13659045 -15.47072359 204.84333977 -15.46819329 198.5500176 C-15.46712467 193.29882873 -15.47200413 188.04765207 -15.47679871 182.79646581 C-15.48853393 169.70149085 -15.48766579 156.60655012 -15.4812419 143.51157295 C-15.47607236 132.14128998 -15.48732926 120.77109267 -15.50634012 109.40082664 C-15.52571528 97.72308187 -15.53368363 86.04538131 -15.53021687 74.36762041 C-15.52840192 67.81253504 -15.5310614 61.25752813 -15.54493141 54.70245552 C-15.55748431 48.5391067 -15.5555896 42.37592965 -15.54252052 36.21258354 C-15.54014971 33.94945595 -15.5429074 31.68631636 -15.55114365 29.42320251 C-15.56156985 26.33594033 -15.55354332 23.24925889 -15.54083252 20.16201782 C-15.5482068 19.26464167 -15.55558109 18.36726552 -15.56317884 17.44269615 C-15.50797362 11.07730647 -14.46504355 6.91905607 -9.92702389 2.17183018 C-6.4061422 0.05812953 -4.09703581 0.00904993 0 0 Z " fill="#CDD6DA" transform="translate(48.16661071777344,-0.5146636962890625)"/>
<path d="M0 0 C0.66 0 1.32 0 2 0 C2.07008054 21.27929608 2.12298351 42.55857313 2.15543652 63.8379612 C2.17090551 73.71834801 2.19199568 83.59866312 2.22631836 93.47900391 C2.25621969 102.09069122 2.27557477 110.7023266 2.28226548 119.31406438 C2.28617649 123.87393775 2.29536862 128.43366256 2.31719017 132.99348831 C2.33756689 137.28621989 2.3438314 141.57874183 2.33932304 145.87151718 C2.34014771 147.44608957 2.34610637 149.02066905 2.35761642 150.59519958 C2.37257951 152.74785558 2.36894028 154.89972381 2.36076355 157.05239868 C2.36352893 158.25626032 2.36629431 159.46012196 2.36914349 160.70046425 C1.81381587 165.66417995 0.19712857 168.74768287 -3.23958683 172.34283352 C-6.76046852 174.45653417 -9.0695749 174.50561376 -13.16661072 174.5146637 C-13.87718756 174.52160922 -14.5877644 174.52855475 -15.31987387 174.53571075 C-17.6952602 174.55397256 -20.06964685 174.54371944 -22.44506836 174.53344727 C-24.15034227 174.54050621 -25.85560992 174.54925112 -27.56086731 174.55955505 C-32.18902828 174.58206205 -36.8168475 174.57910623 -41.44504237 174.57023358 C-45.30943676 174.56512431 -49.17376689 174.57241579 -53.03815466 174.57970566 C-62.15496945 174.59670893 -71.27161689 174.59313462 -80.38842773 174.57641602 C-89.79244066 174.55949368 -99.19598945 174.57532977 -108.59995168 174.6076389 C-116.67569823 174.63433309 -124.75130028 174.64161127 -132.82708651 174.63312382 C-137.64961425 174.62819416 -142.4718627 174.63041229 -147.29435539 174.65091133 C-151.82946134 174.6692658 -156.3638996 174.66331283 -160.89896965 174.63871193 C-162.56222195 174.63370327 -164.2255251 174.63719529 -165.88873672 174.64986038 C-168.16205954 174.66580033 -170.43318609 174.65083516 -172.70640564 174.62818909 C-173.97751662 174.62760278 -175.24862761 174.62701647 -176.5582571 174.62641239 C-181.12107765 173.79595892 -182.73578282 172.24787093 -186 169 C-188.87969266 163.71018099 -188.55698055 157.94998542 -188.6875 152.0625 C-188.75388672 150.99064453 -188.82027344 149.91878906 -188.88867188 148.81445312 C-189.03498895 141.19180546 -189.03498895 141.19180546 -186.42895508 138.19091797 C-184.03747668 136.55834568 -181.59252754 135.29033454 -179 134 C-176.84452275 132.7389229 -174.69518423 131.46731776 -172.55078125 130.1875 C-171.37405156 129.50327799 -170.196124 128.82111248 -169.01708984 128.14086914 C-152.58840301 118.65468749 -136.52004337 108.70827977 -120.74609375 98.1640625 C-120.12812927 97.75109421 -119.51016479 97.33812592 -118.87347412 96.91264343 C-115.82542693 94.87396109 -112.78136852 92.82968093 -109.74365234 90.77563477 C-108.64875488 90.03885498 -107.55385742 89.3020752 -106.42578125 88.54296875 C-104.96265503 87.5533313 -104.96265503 87.5533313 -103.4699707 86.54370117 C-101 85 -101 85 -98 84 C-98.4752588 82.35303396 -98.95531891 80.70745272 -99.4375 79.0625 C-99.70433594 78.14597656 -99.97117187 77.22945313 -100.24609375 76.28515625 C-100.79026051 74.0597507 -100.79026051 74.0597507 -102 73 C-103.57545908 72.8911862 -105.15528915 72.844209 -106.734375 72.82421875 C-108.18457031 72.78844727 -108.18457031 72.78844727 -109.6640625 72.75195312 C-111.70552309 72.70931502 -113.74725156 72.67788639 -115.7890625 72.65820312 C-123.27158231 72.44484215 -123.27158231 72.44484215 -127.140625 70.08203125 C-129.70955124 67.20548149 -130.42846009 65.17331856 -130.37011719 61.29150391 C-129.5087684 55.95864132 -126.85936537 51.06120946 -124.625 46.1875 C-123.86316406 44.47143555 -123.86316406 44.47143555 -123.0859375 42.72070312 C-119.30245536 34.30245536 -119.30245536 34.30245536 -117 32 C-115.68 32 -114.36 32 -113 32 C-113.54919336 38.01117092 -116.04861931 42.97766352 -118.5625 48.375 C-119.19961914 49.76525391 -119.19961914 49.76525391 -119.84960938 51.18359375 C-120.89336976 53.45875685 -121.94363182 55.73067035 -123 58 C-121.28260172 56.28260172 -120.64405676 53.93943327 -119.70703125 51.72265625 C-119.24103516 50.65208984 -118.77503906 49.58152344 -118.29492188 48.47851562 C-117.31114086 46.21154197 -116.34221033 43.93806256 -115.38867188 41.65820312 C-114.91623047 40.58634766 -114.44378906 39.51449219 -113.95703125 38.41015625 C-113.53397705 37.42152588 -113.11092285 36.43289551 -112.67504883 35.41430664 C-110.51559869 32.30181539 -108.61559528 31.85004586 -105 31 C-108.63 31 -112.26 31 -116 31 C-116.495 29.02 -116.495 29.02 -117 27 C-116 26 -116 26 -113.90562439 25.87974548 C-112.98407059 25.88196609 -112.06251678 25.88418671 -111.11303711 25.88647461 C-110.07203354 25.88655014 -109.03102997 25.88662567 -107.95848083 25.88670349 C-106.8262056 25.89186478 -105.69393036 25.89702606 -104.52734375 25.90234375 C-102.79817467 25.90446617 -102.79817467 25.90446617 -101.03407288 25.90663147 C-97.33518936 25.91224995 -93.63636536 25.92480558 -89.9375 25.9375 C-87.43684983 25.94251262 -84.93619871 25.94707594 -82.43554688 25.95117188 C-76.29034412 25.96222538 -70.14517631 25.97898148 -64 26 C-62.91345163 30.07455639 -63 33.78307636 -63 38 C-63.99 38.495 -63.99 38.495 -65 39 C-64.5188509 44.77378925 -62.81532819 48.95859836 -60 54 C-53.90451687 50.21091589 -48.49026389 45.60385934 -43 41 C-42.46842285 40.55624023 -41.9368457 40.11248047 -41.38916016 39.65527344 C-29.11021337 29.37742091 -17.42017021 18.47238685 -6.0625 7.1875 C-5.56024902 6.68992187 -5.05799805 6.19234375 -4.54052734 5.6796875 C-1.94271281 3.08636813 -1.94271281 3.08636813 0 0 Z " fill="#BBCBD0" transform="translate(221,82)"/>
<path d="M0 0 C0.9215538 0.00222061 1.8431076 0.00444122 2.79258728 0.00672913 C3.83359085 0.00680466 4.87459442 0.00688019 5.94714355 0.00695801 C7.07941879 0.01211929 8.21169403 0.01728058 9.37828064 0.02259827 C10.53106003 0.02401321 11.68383942 0.02542816 12.87155151 0.02688599 C16.57043503 0.03250446 20.26925903 0.0450601 23.96812439 0.05775452 C26.46877456 0.06276714 28.96942567 0.06733045 31.47007751 0.07142639 C37.61528027 0.0824799 43.76044808 0.099236 49.90562439 0.12025452 C50.99217276 4.1948109 50.90562439 7.90333088 50.90562439 12.12025452 C50.24562439 12.45025452 49.58562439 12.78025452 48.90562439 13.12025452 C49.43697942 18.3275338 50.78806545 22.3557469 52.90562439 27.12025452 C53.07384705 28.31521545 53.07384705 28.31521545 53.24546814 29.53431702 C54.09155163 32.84856122 55.6246782 34.40694953 57.96812439 36.87025452 C61.90562439 41.04995575 61.90562439 41.04995575 61.90562439 42.12025452 C59.32200921 42.17433018 56.73953184 42.21396152 54.15562439 42.24525452 C53.42601501 42.26201233 52.69640564 42.27877014 51.94468689 42.29603577 C48.10116199 42.3309769 45.15955667 42.29525136 41.90562439 40.12025452 C41.24562439 40.78025452 40.58562439 41.44025452 39.90562439 42.12025452 C37.54053078 42.42085394 35.16120558 42.61540463 32.78062439 42.74525452 C31.49929626 42.82002014 30.21796814 42.89478577 28.89781189 42.97181702 C27.91039001 43.02080139 26.92296814 43.06978577 25.90562439 43.12025452 C26.82601501 43.31361389 27.74640564 43.50697327 28.69468689 43.70619202 C32.96041024 45.58477091 33.53314474 47.50137538 35.28062439 51.74525452 C35.78335876 52.93377014 36.28609314 54.12228577 36.80406189 55.34681702 C37.16757751 56.26205139 37.53109314 57.17728577 37.90562439 58.12025452 C36.86556741 54.88251191 35.80497908 51.91896389 34.28062439 48.87025452 C32.90562439 46.12025452 32.90562439 46.12025452 32.90562439 44.12025452 C35.15562439 43.80775452 35.15562439 43.80775452 37.90562439 44.12025452 C40.21812439 46.62025452 40.21812439 46.62025452 41.90562439 49.12025452 C42.89562439 48.46025452 43.88562439 47.80025452 44.90562439 47.12025452 C48.93054004 46.5835991 50.64200249 46.97103457 54.21812439 48.99525452 C56.90562439 51.12025452 56.90562439 51.12025452 57.90562439 53.12025452 C58.31767273 57.7557984 57.78016585 60.42441549 54.90562439 64.12025452 C49.75368011 67.46067817 43.37439289 66.48907318 37.46812439 66.49525452 C36.24029236 66.5197467 35.01246033 66.54423889 33.74742126 66.56947327 C32.56341736 66.57334045 31.37941345 66.57720764 30.15953064 66.58119202 C29.08002136 66.58940979 28.00051208 66.59762756 26.88829041 66.60609436 C23.17200965 66.00075764 21.56748812 64.74083552 18.90562439 62.12025452 C17.69541931 60.28919983 17.69541931 60.28919983 16.88609314 58.44837952 C16.43653259 57.45257874 16.43653259 57.45257874 15.97789001 56.43666077 C15.68591736 55.7547467 15.3939447 55.07283264 15.09312439 54.37025452 C14.7818158 53.6728717 14.4705072 52.97548889 14.14976501 52.25697327 C13.38980562 50.54998755 12.64604299 48.83580656 11.90562439 47.12025452 C10.94523254 47.10623596 10.94523254 47.10623596 9.96543884 47.0919342 C7.04890064 47.03806605 4.13393814 46.95445253 1.21812439 46.87025452 C0.21072205 46.85607483 -0.7966803 46.84189514 -1.83460999 46.82728577 C-9.3429935 46.57948433 -9.3429935 46.57948433 -13.23890686 44.19837952 C-15.80542482 41.3238794 -16.52278657 39.29030456 -16.4644928 35.41175842 C-15.60314401 30.07889583 -12.95374098 25.18146398 -10.71937561 20.30775452 C-10.21148499 19.16371155 -9.70359436 18.01966858 -9.18031311 16.84095764 C-5.39683097 8.42270987 -5.39683097 8.42270987 -3.09437561 6.12025452 C-1.77437561 6.12025452 -0.45437561 6.12025452 0.90562439 6.12025452 C0.35643103 12.13142544 -2.14299493 17.09791804 -4.65687561 22.49525452 C-5.29399475 23.88550842 -5.29399475 23.88550842 -5.94398499 25.30384827 C-6.98774537 27.57901136 -8.03800743 29.85092487 -9.09437561 32.12025452 C-7.37697733 30.40285623 -6.73843238 28.05968779 -5.80140686 25.84291077 C-5.33541077 24.77234436 -4.86941467 23.70177795 -4.38929749 22.59877014 C-3.40551647 20.33179649 -2.43658594 18.05831708 -1.48304749 15.77845764 C-1.01060608 14.70660217 -0.53816467 13.6347467 -0.05140686 12.53041077 C0.37164734 11.5417804 0.79470154 10.55315002 1.23057556 9.53456116 C3.3900257 6.42206991 5.29002911 5.97030038 8.90562439 5.12025452 C5.27562439 5.12025452 1.64562439 5.12025452 -2.09437561 5.12025452 C-2.42437561 3.80025452 -2.75437561 2.48025452 -3.09437561 1.12025452 C-2.09437561 0.12025452 -2.09437561 0.12025452 0 0 Z " fill="#0A0B0B" transform="translate(107.09437561035156,107.87974548339844)"/>
<path d="M0 0 C0.9215538 0.00222061 1.8431076 0.00444122 2.79258728 0.00672913 C3.83359085 0.00680466 4.87459442 0.00688019 5.94714355 0.00695801 C7.07941879 0.01211929 8.21169403 0.01728058 9.37828064 0.02259827 C10.53106003 0.02401321 11.68383942 0.02542816 12.87155151 0.02688599 C16.57043503 0.03250446 20.26925903 0.0450601 23.96812439 0.05775452 C26.46877456 0.06276714 28.96942567 0.06733045 31.47007751 0.07142639 C37.61528027 0.0824799 43.76044808 0.099236 49.90562439 0.12025452 C50.99217276 4.1948109 50.90562439 7.90333088 50.90562439 12.12025452 C50.24562439 12.45025452 49.58562439 12.78025452 48.90562439 13.12025452 C49.43697942 18.3275338 50.78806545 22.3557469 52.90562439 27.12025452 C53.01777283 27.91689514 53.12992126 28.71353577 53.24546814 29.53431702 C54.09155163 32.84856122 55.6246782 34.40694953 57.96812439 36.87025452 C61.90562439 41.04995575 61.90562439 41.04995575 61.90562439 42.12025452 C59.32200921 42.17433018 56.73953184 42.21396152 54.15562439 42.24525452 C53.42601501 42.26201233 52.69640564 42.27877014 51.94468689 42.29603577 C48.10116199 42.3309769 45.15955667 42.29525136 41.90562439 40.12025452 C41.24562439 40.78025452 40.58562439 41.44025452 39.90562439 42.12025452 C35.24895295 42.71210964 30.59630373 42.86439928 25.90562439 43.12025452 C29.37062439 51.53525452 29.37062439 51.53525452 32.90562439 60.12025452 C32.24562439 60.12025452 31.58562439 60.12025452 30.90562439 60.12025452 C30.43511658 59.06064514 29.96460876 58.00103577 29.47984314 56.90931702 C28.85138955 55.52109117 28.22245833 54.13308148 27.59312439 52.74525452 C27.28439392 52.04658264 26.97566345 51.34791077 26.65757751 50.62806702 C25.05546173 47.12027667 24.17917649 45.30262259 20.90562439 43.12025452 C21.56562439 42.13025452 22.22562439 41.14025452 22.90562439 40.12025452 C23.40120385 36.320812 23.23188096 34.63294341 21.15562439 31.37025452 C19.10182707 29.3164572 17.58157901 28.1715224 14.90562439 27.12025452 C15.52480067 23.24336666 16.71416138 20.0931089 18.40562439 16.55775452 C19.90119599 13.42314078 21.20001 10.52805127 21.90562439 7.12025452 C20.25562439 7.12025452 18.60562439 7.12025452 16.90562439 7.12025452 C16.73619324 7.66190247 16.56676208 8.20355042 16.39219666 8.76161194 C14.54755148 14.49347341 12.33137008 19.9530743 9.84312439 25.43275452 C9.31622009 26.60934631 9.31622009 26.60934631 8.77867126 27.80970764 C7.21792744 31.28228889 5.62458454 34.72264086 3.90562439 38.12025452 C3.6838154 33.71909723 4.17564729 30.80180937 6.05796814 26.82728577 C6.5046283 25.86757874 6.95128845 24.9078717 7.41148376 23.91908264 C7.88392517 22.93359436 8.35636658 21.94810608 8.84312439 20.93275452 C9.76993163 18.9605801 10.69575796 16.98794432 11.62046814 15.01478577 C12.03417664 14.147005 12.44788513 13.27922424 12.87413025 12.38514709 C13.99290125 10.03410965 13.99290125 10.03410965 14.90562439 7.12025452 C13.25562439 7.12025452 11.60562439 7.12025452 9.90562439 7.12025452 C9.73691833 7.66262756 9.56821228 8.20500061 9.39439392 8.7638092 C7.28982377 15.32354489 4.58407545 21.47893717 1.69078064 27.72181702 C-0.03344778 31.50607865 -1.54443234 34.95401758 -2.09437561 39.12025452 C-2.42437561 39.12025452 -2.75437561 39.12025452 -3.09437561 39.12025452 C-3.37517053 33.83487509 -2.67256162 30.32693031 -0.46937561 25.53041077 C0.07203064 24.3348053 0.61343689 23.13919983 1.17124939 21.90736389 C1.74908979 20.66569495 2.32721836 19.42416007 2.90562439 18.18275452 C3.48495178 16.91442283 4.06308858 15.64554661 4.63999939 14.37611389 C6.05026803 11.28527512 7.47239279 8.2004954 8.90562439 5.12025452 C5.27562439 5.12025452 1.64562439 5.12025452 -2.09437561 5.12025452 C-2.42437561 3.80025452 -2.75437561 2.48025452 -3.09437561 1.12025452 C-2.09437561 0.12025452 -2.09437561 0.12025452 0 0 Z " fill="#C3CCCF" transform="translate(107.09437561035156,107.87974548339844)"/>
<path d="M0 0 C0 1.65 0 3.3 0 5 C-0.99 5.495 -0.99 5.495 -2 6 C-1.46864497 11.20727928 -0.11755894 15.23549238 2 20 C2.11214844 20.79664063 2.22429687 21.59328125 2.33984375 22.4140625 C3.18592724 25.7283067 4.71905381 27.28669501 7.0625 29.75 C11 33.92970123 11 33.92970123 11 35 C8.41638482 35.05407567 5.83390745 35.093707 3.25 35.125 C2.52039063 35.14175781 1.79078125 35.15851563 1.0390625 35.17578125 C-2.8044624 35.21072239 -5.74606772 35.17499684 -9 33 C-9.66 33.66 -10.32 34.32 -11 35 C-13.74485593 35.14507695 -16.38480543 35.18652423 -19.125 35.125 C-19.87910156 35.11597656 -20.63320312 35.10695312 -21.41015625 35.09765625 C-23.27357254 35.0740687 -25.13682593 35.03819719 -27 35 C-26.06558465 33.72689688 -25.12732889 32.456612 -24.1875 31.1875 C-23.66542969 30.47980469 -23.14335937 29.77210938 -22.60546875 29.04296875 C-21.15747502 27.20038793 -19.76898495 25.53635131 -18 24 C-17.34 24 -16.68 24 -16 24 C-15.731875 23.195625 -15.46375 22.39125 -15.1875 21.5625 C-14.795625 20.716875 -14.40375 19.87125 -14 19 C-13.01 18.67 -12.02 18.34 -11 18 C-10.34 20.31 -9.68 22.62 -9 25 C-7.02 24.34 -5.04 23.68 -3 23 C-3.44472656 22.13117188 -3.88945312 21.26234375 -4.34765625 20.3671875 C-4.91355469 19.21476562 -5.47945312 18.06234375 -6.0625 16.875 C-6.63097656 15.73804688 -7.19945312 14.60109375 -7.78515625 13.4296875 C-9.12058669 9.65956554 -9.11328115 7.79825334 -8 4 C-5.25419756 0.40205198 -4.68143683 0 0 0 Z " fill="#060607" transform="translate(158,115)"/>
<path d="M0 0 C2.4375 0.8125 2.4375 0.8125 4.4375 2.8125 C4.5625 6.4375 4.5625 6.4375 4.4375 9.8125 C5.22125 9.93625 6.005 10.06 6.8125 10.1875 C9.4375 10.8125 9.4375 10.8125 11.4375 12.8125 C11.45441537 15.56970558 10.91466181 18.07966418 10.4375 20.8125 C9.4375 21.8125 9.4375 21.8125 6.4375 21.9375 C3.4375 21.8125 3.4375 21.8125 2.4375 20.8125 C2.7675 24.1125 3.0975 27.4125 3.4375 30.8125 C1.1275 30.8125 -1.1825 30.8125 -3.5625 30.8125 C-3.2325 27.5125 -2.9025 24.2125 -2.5625 20.8125 C-3.5525 21.4725 -4.5425 22.1325 -5.5625 22.8125 C-8.52326291 22.45361965 -9.40908021 21.96591979 -11.5625 19.8125 C-11.828125 17.9375 -11.828125 17.9375 -11.8125 15.8125 C-11.81765625 15.11125 -11.8228125 14.41 -11.828125 13.6875 C-11.5625 11.8125 -11.5625 11.8125 -9.5625 9.8125 C-6.9375 9.6875 -6.9375 9.6875 -4.5625 9.8125 C-4.789375 8.719375 -5.01625 7.62625 -5.25 6.5 C-5.5625 2.8125 -5.5625 2.8125 -4.4375 0.8125 C-2.5625 -0.1875 -2.5625 -0.1875 0 0 Z " fill="#0A0A0A" transform="translate(67.5625,57.1875)"/>
<path d="M0 0 C2.31 0 4.62 0 7 0 C6.67 3.3 6.34 6.6 6 10 C6.66 9.34 7.32 8.68 8 8 C11.0625 8.25 11.0625 8.25 14 9 C15.52491998 12.04983996 15.23562548 14.6423369 15 18 C13.75 19.9375 13.75 19.9375 12 21 C10.68 21 9.36 21 8 21 C8.04125 22.11375 8.0825 23.2275 8.125 24.375 C8 28 8 28 6 30 C3.5 30.25 3.5 30.25 1 30 C-1 28 -1 28 -1.125 24.375 C-1.08375 23.26125 -1.0425 22.1475 -1 21 C-1.78375 20.87625 -2.5675 20.7525 -3.375 20.625 C-6 20 -6 20 -8 18 C-8.265625 16.125 -8.265625 16.125 -8.25 14 C-8.25515625 13.29875 -8.2603125 12.5975 -8.265625 11.875 C-8 10 -8 10 -6 8 C-3.5 7.75 -3.5 7.75 -1 8 C-0.34 8.66 0.32 9.32 1 10 C0.67 6.7 0.34 3.4 0 0 Z " fill="#080809" transform="translate(191,168)"/>
<path d="M0 0 C21.12 0 42.24 0 64 0 C61.59340659 6.01648352 61.59340659 6.01648352 57 8 C52.90830356 8.6094016 51.28102141 8.15612301 47.625 6.125 C46.75875 5.42375 45.8925 4.7225 45 4 C45 3.34 45 2.68 45 2 C44.278125 2.433125 43.55625 2.86625 42.8125 3.3125 C41.4203125 4.1478125 41.4203125 4.1478125 40 5 C39.195625 5.556875 38.39125 6.11375 37.5625 6.6875 C34.35590845 8.32990055 32.56564421 8.50937774 29 8 C25.625 6.125 25.625 6.125 23 4 C23 3.34 23 2.68 23 2 C21.9171875 2.6496875 21.9171875 2.6496875 20.8125 3.3125 C19.884375 3.869375 18.95625 4.42625 18 5 C17.195625 5.556875 16.39125 6.11375 15.5625 6.6875 C12.27997858 8.36879146 10.64851701 8.65673306 7 8 C4.38266858 6.27446094 2.06739682 4.36099163 0 2 C0 1.34 0 0.68 0 0 Z " fill="#09090A" transform="translate(99,99)"/>
<path d="M0 0 C2.97 0 5.94 0 9 0 C9 0.99 9 1.98 9 3 C8.34 3 7.68 3 7 3 C7.495 4.093125 7.99 5.18625 8.5 6.3125 C10 10 10 10 10 13 C12.7972908 10.93243723 13.02692273 9.85559629 13.6875 6.3125 C13.790625 5.219375 13.89375 4.12625 14 3 C13.34 3 12.68 3 12 3 C12 2.01 12 1.02 12 0 C14.64 0 17.28 0 20 0 C20 0.99 20 1.98 20 3 C19.01 3 18.02 3 17 3 C17 10.59 17 18.18 17 26 C17.99 26 18.98 26 20 26 C20 27.32 20 28.64 20 30 C17.03 30 14.06 30 11 30 C11 29.01 11 28.02 11 27 C11.99 27 12.98 27 14 27 C13.67 23.7 13.34 20.4 13 17 C10.03 21.95 10.03 21.95 7 27 C7.66 27 8.32 27 9 27 C9 27.99 9 28.98 9 30 C6.03 30 3.06 30 0 30 C0 28.68 0 27.36 0 26 C1.32 26 2.64 26 4 26 C4.433125 24.9171875 4.433125 24.9171875 4.875 23.8125 C6 21 6 21 7.21875 18.6796875 C8.27417868 15.05956713 7.32750432 13.61391711 5.625 10.3125 C3 5.12566845 3 5.12566845 3 3 C2.01 3 1.02 3 0 3 C0 2.01 0 1.02 0 0 Z " fill="#090A0A" transform="translate(185,206)"/>
<path d="M0 0 C2.64 0 5.28 0 8 0 C8 0.99 8 1.98 8 3 C7.34 3 6.68 3 6 3 C6.33 5.97 6.66 8.94 7 12 C8.65 9.36 10.3 6.72 12 4 C11.34 4 10.68 4 10 4 C10 2.68 10 1.36 10 0 C13.3 0 16.6 0 20 0 C20 1.32 20 2.64 20 4 C19.4225 4.020625 18.845 4.04125 18.25 4.0625 C15.30887638 5.28796818 14.0290312 7.11776591 12.55859375 9.8984375 C11.48452358 13.93934484 13.35819437 17.33169788 15 21 C15.350625 21.99 15.70125 22.98 16.0625 24 C16.82890503 26.17280855 16.82890503 26.17280855 19 27 C19 27.99 19 28.98 19 30 C16.03 30 13.06 30 10 30 C10 29.01 10 28.02 10 27 C10.99 27 11.98 27 13 27 C11.68 24.03 10.36 21.06 9 18 C8.34 18.33 7.68 18.66 7 19 C6.53476937 20.89533342 6.53476937 20.89533342 6.375 23.0625 C6.189375 25.0115625 6.189375 25.0115625 6 27 C6.66 27 7.32 27 8 27 C8 27.99 8 28.98 8 30 C5.36 30 2.72 30 0 30 C0 29.01 0 28.02 0 27 C0.99 27 1.98 27 3 27 C3 19.08 3 11.16 3 3 C2.01 3 1.02 3 0 3 C0 2.01 0 1.02 0 0 Z " fill="#090A0A" transform="translate(57,20)"/>
<path d="M0 0 C0.9215538 0.00222061 1.8431076 0.00444122 2.79258728 0.00672913 C3.83359085 0.00680466 4.87459442 0.00688019 5.94714355 0.00695801 C7.07941879 0.01211929 8.21169403 0.01728058 9.37828064 0.02259827 C10.53106003 0.02401321 11.68383942 0.02542816 12.87155151 0.02688599 C16.57043503 0.03250446 20.26925903 0.0450601 23.96812439 0.05775452 C26.46877456 0.06276714 28.96942567 0.06733045 31.47007751 0.07142639 C37.61528027 0.0824799 43.76044808 0.099236 49.90562439 0.12025452 C50.46812439 2.05775452 50.46812439 2.05775452 50.90562439 4.12025452 C49.90562439 5.12025452 49.90562439 5.12025452 47.81124878 5.24050903 C46.88969498 5.23828842 45.96814117 5.23606781 45.0186615 5.23377991 C43.97765793 5.23370438 42.93665436 5.23362885 41.86410522 5.23355103 C40.73182999 5.22838974 39.59955475 5.22322845 38.43296814 5.21791077 C37.28018875 5.21649582 36.12740936 5.21508087 34.93969727 5.21362305 C31.24081375 5.20800457 27.54198975 5.19544893 23.84312439 5.18275452 C21.34247422 5.1777419 18.8418231 5.17317858 16.34117126 5.16908264 C10.19596851 5.15802914 4.0508007 5.14127304 -2.09437561 5.12025452 C-2.65687561 3.18275452 -2.65687561 3.18275452 -3.09437561 1.12025452 C-2.09437561 0.12025452 -2.09437561 0.12025452 0 0 Z " fill="#080809" transform="translate(107.09437561035156,107.87974548339844)"/>
<path d="M0 0 C3 1.625 3 1.625 5 4 C5.3125 7.25 5.3125 7.25 5 10 C4.01 10 3.02 10 2 10 C2 10.99 2 11.98 2 13 C1.25234375 13.06058594 0.5046875 13.12117187 -0.265625 13.18359375 C-1.25046875 13.26738281 -2.2353125 13.35117188 -3.25 13.4375 C-4.71179688 13.55931641 -4.71179688 13.55931641 -6.203125 13.68359375 C-8.56461753 13.95074584 -10.71901065 14.35371968 -13 15 C-13 13.35 -13 11.7 -13 10 C-9.7 8.68 -6.4 7.36 -3 6 C-7.455 6.495 -7.455 6.495 -12 7 C-10.25786311 0.03145245 -7.06005856 -1.2224615 0 0 Z " fill="#070808" transform="translate(142,115)"/>
<path d="M0 0 C4.62 0 9.24 0 14 0 C14 1.32 14 2.64 14 4 C14.66 4.33 15.32 4.66 16 5 C15.01 6.32 14.02 7.64 13 9 C11.95550089 5.86650268 12.06576355 5.01031744 13 2 C11.35 2 9.7 2 8 2 C7.83056885 2.54164795 7.6611377 3.0832959 7.48657227 3.64135742 C5.64192709 9.3732189 3.42574569 14.83281978 0.9375 20.3125 C0.4105957 21.4890918 0.4105957 21.4890918 -0.12695312 22.68945312 C-1.68769695 26.16203437 -3.28103985 29.60238634 -5 33 C-5.22180899 28.59884272 -4.7299771 25.68155486 -2.84765625 21.70703125 C-2.40099609 20.74732422 -1.95433594 19.78761719 -1.49414062 18.79882812 C-1.02169922 17.81333984 -0.54925781 16.82785156 -0.0625 15.8125 C0.86430724 13.84032558 1.79013357 11.86768981 2.71484375 9.89453125 C3.12855225 9.02675049 3.54226074 8.15896973 3.96850586 7.26489258 C5.08727686 4.91385513 5.08727686 4.91385513 6 2 C4.35 2 2.7 2 1 2 C0.83129395 2.54237305 0.66258789 3.08474609 0.48876953 3.64355469 C-1.61580062 10.20329038 -4.32154894 16.35868266 -7.21484375 22.6015625 C-8.93907217 26.38582414 -10.45005672 29.83376307 -11 34 C-11.33 34 -11.66 34 -12 34 C-12.28079492 28.71462057 -11.57818601 25.2066758 -9.375 20.41015625 C-8.83359375 19.21455078 -8.2921875 18.01894531 -7.734375 16.78710938 C-7.1565346 15.54544043 -6.57840603 14.30390556 -6 13.0625 C-5.42067261 11.79416831 -4.84253581 10.52529209 -4.265625 9.25585938 C-2.85544317 6.16521086 -1.42927161 3.08186692 0 0 Z " fill="#A6ADB0" transform="translate(116,113)"/>
<path d="M0 0 C1.65 0.33 3.3 0.66 5 1 C5 2.32 5 3.64 5 5 C6.32 5.66 7.64 6.32 9 7 C8.67 8.32 8.34 9.64 8 11 C3.79495242 12.20144217 0.20504758 12.20144217 -4 11 C-4.33 9.68 -4.66 8.36 -5 7 C-4.0409375 6.6596875 -4.0409375 6.6596875 -3.0625 6.3125 C-0.72806339 5.14749104 -0.72806339 5.14749104 -0.25 2.375 C-0.1675 1.59125 -0.085 0.8075 0 0 Z " fill="#0E0E0F" transform="translate(140,85)"/>
<path d="M0 0 C1.65 0.33 3.3 0.66 5 1 C5 2.32 5 3.64 5 5 C6.32 5.66 7.64 6.32 9 7 C8.67 8.32 8.34 9.64 8 11 C3.79495242 12.20144217 0.20504758 12.20144217 -4 11 C-4 9.35 -4 7.7 -4 6 C-3.01 5.67 -2.02 5.34 -1 5 C-0.67 3.35 -0.34 1.7 0 0 Z " fill="#0B0B0B" transform="translate(118,85)"/>
<path d="M0 0 C0.66 0.33 1.32 0.66 2 1 C1.34 1.66 0.68 2.32 0 3 C1.32 3.33 2.64 3.66 4 4 C4 4.99 4 5.98 4 7 C1.69 7.33 -0.62 7.66 -3 8 C-3.33 7.34 -3.66 6.68 -4 6 C-5.65 5.67 -7.3 5.34 -9 5 C-6.69 9.95 -4.38 14.9 -2 20 C-2.66 20.33 -3.32 20.66 -4 21 C-4.42410156 19.94039062 -4.84820312 18.88078125 -5.28515625 17.7890625 C-5.87624887 16.40046397 -6.46877254 15.01247399 -7.0625 13.625 C-7.47532227 12.57699219 -7.47532227 12.57699219 -7.89648438 11.5078125 C-9.55046651 7.59370278 -9.55046651 7.59370278 -12.80810547 5.07714844 C-14.94258979 4.42588814 -14.94258979 4.42588814 -18 4 C-18 3.67 -18 3.34 -18 3 C-16.86820313 2.95101562 -15.73640625 2.90203125 -14.5703125 2.8515625 C-13.08851661 2.77653486 -11.606747 2.70098703 -10.125 2.625 C-9.37863281 2.5940625 -8.63226563 2.563125 -7.86328125 2.53125 C-3.46526812 2.44356169 -3.46526812 2.44356169 0 0 Z " fill="#9AA4A7" transform="translate(149,147)"/>
<path d="M0 0 C2.0625 0.4375 2.0625 0.4375 4 1 C4.75 2.5625 4.75 2.5625 5 5 C4.04489429 7.63517117 2.80716519 9.85504692 1 12 C-1.6875 13 -1.6875 13 -4 13 C-5 12 -5 12 -5.0625 9.4375 C-5.041875 8.633125 -5.02125 7.82875 -5 7 C-4.01 6.67 -3.02 6.34 -2 6 C-1.855625 5.195625 -1.71125 4.39125 -1.5625 3.5625 C-1 1 -1 1 0 0 Z " fill="#151617" transform="translate(164,84)"/>
<path d="M0 0 C1.65 0 3.3 0 5 0 C5.33 1.65 5.66 3.3 6 5 C6.99 5.33 7.98 5.66 9 6 C9 7.65 9 9.3 9 11 C7.35 11.33 5.7 11.66 4 12 C-0.57142857 4.71428571 -0.57142857 4.71428571 0 0 Z " fill="#0C0C0C" transform="translate(94,85)"/>
<path d="M0 0 C1.1446875 0.3403125 1.1446875 0.3403125 2.3125 0.6875 C2.9375 3.5625 2.9375 3.5625 3.3125 6.6875 C2.6525 7.3475 1.9925 8.0075 1.3125 8.6875 C-1.8125 8.3125 -1.8125 8.3125 -4.6875 7.6875 C-5.375 5.375 -5.375 5.375 -5.6875 2.6875 C-4.0011022 -0.12316299 -3.27764429 -0.38112143 0 0 Z " fill="#8F9598" transform="translate(122.6875,140.3125)"/>
<path d="M0 0 C3.3 0 6.6 0 10 0 C10 1.32 10 2.64 10 4 C9.401875 4.061875 8.80375 4.12375 8.1875 4.1875 C5.74459083 4.83569219 5.74459083 4.83569219 4.5 7.5 C3 10 3 10 0.8125 10.8125 C0.214375 10.874375 -0.38375 10.93625 -1 11 C0.875 6.25 0.875 6.25 2 4 C1.34 4 0.68 4 0 4 C0 2.68 0 1.36 0 0 Z " fill="#202222" transform="translate(67,20)"/>
<path d="M0 0 C2.625 0.375 2.625 0.375 5 1 C5.6875 3.3125 5.6875 3.3125 6 6 C4.8125 7.875 4.8125 7.875 3 9 C0.02602384 8.72963853 -0.85446026 8.14553974 -3 6 C-2.63318342 3.06546739 -2.13562754 2.13562754 0 0 Z " fill="#889397" transform="translate(154,160)"/>
<path d="M0 0 C0.99 0 1.98 0 3 0 C3 0.99 3 1.98 3 3 C3.66 3 4.32 3 5 3 C5.25 9.625 5.25 9.625 3 13 C2.34 13 1.68 13 1 13 C-2 6.375 -2 6.375 -2 3 C-1.34 3 -0.68 3 0 3 C0 2.01 0 1.02 0 0 Z " fill="#A5B3B7" transform="translate(194,206)"/>
<path d="M0 0 C0.33 0.99 0.66 1.98 1 3 C-0.4375 5.6875 -0.4375 5.6875 -2 8 C-1.34 8 -0.68 8 0 8 C0 8.99 0 9.98 0 11 C-2.97 11 -5.94 11 -9 11 C-9 9.68 -9 8.36 -9 7 C-7.68 7 -6.36 7 -5 7 C-4.731875 6.21625 -4.46375 5.4325 -4.1875 4.625 C-3 2 -3 2 0 0 Z " fill="#151717" transform="translate(194,225)"/>
<path d="M0 0 C3.44216672 2.6598561 3.99504674 5.90288286 5 10 C3.68 10 2.36 10 1 10 C0.67 10.99 0.34 11.98 0 13 C0 12.01 0 11.02 0 10 C-0.66 10 -1.32 10 -2 10 C-2.1953125 3.9453125 -2.1953125 3.9453125 -2 2 C-1.34 1.34 -0.68 0.68 0 0 Z " fill="#BFC7CB" transform="translate(65,37)"/>
<path d="M0 0 C0.33 0 0.66 0 1 0 C1 3.63 1 7.26 1 11 C-0.32 11 -1.64 11 -3 11 C-3.33 11.99 -3.66 12.98 -4 14 C-4 13.01 -4 12.02 -4 11 C-4.66 11 -5.32 11 -6 11 C-4.55007731 6.89188572 -2.54592427 3.53144334 0 0 Z " fill="#A2B0B5" transform="translate(198,222)"/>
<path d="M0 0 C1.32 1.32 2.64 2.64 4 4 C2.6302836 7.99500618 0.74277578 10.80009492 -2 14 C-2 10.37 -2 6.74 -2 3 C-1.34 3 -0.68 3 0 3 C0 2.01 0 1.02 0 0 Z " fill="#BEC7CA" transform="translate(65,20)"/>
<path d="M0 0 C0.66 0.33 1.32 0.66 2 1 C1.34 1.66 0.68 2.32 0 3 C1.32 3.33 2.64 3.66 4 4 C4 4.99 4 5.98 4 7 C1.69 7.33 -0.62 7.66 -3 8 C-3.33 6.35 -3.66 4.7 -4 3 C-2.68 2.01 -1.36 1.02 0 0 Z " fill="#717B7E" transform="translate(149,147)"/>
<path d="M0 0 C2.475 0.495 2.475 0.495 5 1 C5 2.32 5 3.64 5 5 C3.35 5 1.7 5 0 5 C0 3.35 0 1.7 0 0 Z " fill="#070707" transform="translate(119,142)"/>
<path d="M0 0 C3.63 0 7.26 0 11 0 C11 0.33 11 0.66 11 1 C3.57142857 3.14285714 3.57142857 3.14285714 0 4 C0 2.68 0 1.36 0 0 Z " fill="#C9D2D6" transform="translate(130,113)"/>
<path d="M0 0 C1.32 0 2.64 0 4 0 C4 1.65 4 3.3 4 5 C2.35 4.67 0.7 4.34 -1 4 C-0.67 2.68 -0.34 1.36 0 0 Z " fill="#040505" transform="translate(154,162)"/>
</svg>
